<mxfile host="65bd71144e">
    <diagram id="R2lEEEUBdFMjLlhIrx00" name="Page-1">
        <mxGraphModel dx="653" dy="680" grid="1" gridSize="10" guides="1" tooltips="1" connect="1" arrows="1" fold="1" page="1" pageScale="1" pageWidth="1100" pageHeight="850" math="0" shadow="0" extFonts="Permanent Marker^https://fonts.googleapis.com/css?family=Permanent+Marker">
            <root>
                <mxCell id="0"/>
                <mxCell id="1" parent="0"/>
                <mxCell id="9zkHAo0U01--tT_nsvhs-4" value="Users" style="shape=table;startSize=30;container=1;collapsible=1;childLayout=tableLayout;fixedRows=1;rowLines=0;fontStyle=1;align=center;resizeLast=1;html=1;direction=east;" parent="1" vertex="1">
                    <mxGeometry x="120" y="30" width="380" height="240" as="geometry">
                        <mxRectangle x="380" y="440" width="60" height="30" as="alternateBounds"/>
                    </mxGeometry>
                </mxCell>
                <mxCell id="9zkHAo0U01--tT_nsvhs-8" value="" style="shape=partialRectangle;collapsible=0;dropTarget=0;pointerEvents=0;fillColor=none;top=0;left=0;bottom=1;right=0;points=[[0,0.5],[1,0.5]];portConstraint=eastwest;" parent="9zkHAo0U01--tT_nsvhs-4" vertex="1">
                    <mxGeometry y="30" width="380" height="30" as="geometry"/>
                </mxCell>
                <mxCell id="KC7AhWleOj4YjxLJDr-f-1" style="shape=partialRectangle;connectable=0;fillColor=none;top=0;left=0;bottom=0;right=0;align=left;spacingLeft=6;fontStyle=1;overflow=hidden;" parent="9zkHAo0U01--tT_nsvhs-8" vertex="1">
                    <mxGeometry width="30" height="30" as="geometry">
                        <mxRectangle width="30" height="30" as="alternateBounds"/>
                    </mxGeometry>
                </mxCell>
                <mxCell id="9zkHAo0U01--tT_nsvhs-39" value="colmun" style="shape=partialRectangle;connectable=0;fillColor=none;top=0;left=0;bottom=0;right=0;align=left;spacingLeft=6;fontStyle=1;overflow=hidden;" parent="9zkHAo0U01--tT_nsvhs-8" vertex="1">
                    <mxGeometry x="30" width="140" height="30" as="geometry">
                        <mxRectangle width="140" height="30" as="alternateBounds"/>
                    </mxGeometry>
                </mxCell>
                <mxCell id="9zkHAo0U01--tT_nsvhs-36" value="type" style="shape=partialRectangle;connectable=0;fillColor=none;top=0;left=0;bottom=0;right=0;align=left;spacingLeft=6;fontStyle=1;overflow=hidden;" parent="9zkHAo0U01--tT_nsvhs-8" vertex="1">
                    <mxGeometry x="170" width="60.00000000000023" height="30" as="geometry">
                        <mxRectangle width="60.00000000000023" height="30" as="alternateBounds"/>
                    </mxGeometry>
                </mxCell>
                <mxCell id="9zkHAo0U01--tT_nsvhs-10" value="Options" style="shape=partialRectangle;connectable=0;fillColor=none;top=0;left=0;bottom=0;right=0;align=left;spacingLeft=6;fontStyle=1;overflow=hidden;" parent="9zkHAo0U01--tT_nsvhs-8" vertex="1">
                    <mxGeometry x="230.00000000000023" width="149.99999999999977" height="30" as="geometry">
                        <mxRectangle width="149.99999999999977" height="30" as="alternateBounds"/>
                    </mxGeometry>
                </mxCell>
                <mxCell id="9zkHAo0U01--tT_nsvhs-11" value="" style="shape=partialRectangle;collapsible=0;dropTarget=0;pointerEvents=0;fillColor=none;top=0;left=0;bottom=0;right=0;points=[[0,0.5],[1,0.5]];portConstraint=eastwest;" parent="9zkHAo0U01--tT_nsvhs-4" vertex="1">
                    <mxGeometry y="60" width="380" height="30" as="geometry"/>
                </mxCell>
                <mxCell id="KC7AhWleOj4YjxLJDr-f-2" value="PK" style="shape=partialRectangle;connectable=0;fillColor=none;top=0;left=0;bottom=0;right=0;align=left;spacingLeft=6;overflow=hidden;" parent="9zkHAo0U01--tT_nsvhs-11" vertex="1">
                    <mxGeometry width="30" height="30" as="geometry">
                        <mxRectangle width="30" height="30" as="alternateBounds"/>
                    </mxGeometry>
                </mxCell>
                <mxCell id="9zkHAo0U01--tT_nsvhs-40" value="id" style="shape=partialRectangle;connectable=0;fillColor=none;top=0;left=0;bottom=0;right=0;align=left;spacingLeft=6;overflow=hidden;" parent="9zkHAo0U01--tT_nsvhs-11" vertex="1">
                    <mxGeometry x="30" width="140" height="30" as="geometry">
                        <mxRectangle width="140" height="30" as="alternateBounds"/>
                    </mxGeometry>
                </mxCell>
                <mxCell id="9zkHAo0U01--tT_nsvhs-37" value="integer" style="shape=partialRectangle;connectable=0;fillColor=none;top=0;left=0;bottom=0;right=0;align=left;spacingLeft=6;overflow=hidden;" parent="9zkHAo0U01--tT_nsvhs-11" vertex="1">
                    <mxGeometry x="170" width="60.00000000000023" height="30" as="geometry">
                        <mxRectangle width="60.00000000000023" height="30" as="alternateBounds"/>
                    </mxGeometry>
                </mxCell>
                <mxCell id="9zkHAo0U01--tT_nsvhs-13" value="null: false, unique: true" style="shape=partialRectangle;connectable=0;fillColor=none;top=0;left=0;bottom=0;right=0;align=left;spacingLeft=6;overflow=hidden;" parent="9zkHAo0U01--tT_nsvhs-11" vertex="1">
                    <mxGeometry x="230.00000000000023" width="149.99999999999977" height="30" as="geometry">
                        <mxRectangle width="149.99999999999977" height="30" as="alternateBounds"/>
                    </mxGeometry>
                </mxCell>
                <mxCell id="_vR3nj1laZdZThRFA7n--1" style="shape=partialRectangle;collapsible=0;dropTarget=0;pointerEvents=0;fillColor=none;top=0;left=0;bottom=0;right=0;points=[[0,0.5],[1,0.5]];portConstraint=eastwest;" parent="9zkHAo0U01--tT_nsvhs-4" vertex="1">
                    <mxGeometry y="90" width="380" height="30" as="geometry"/>
                </mxCell>
                <mxCell id="_vR3nj1laZdZThRFA7n--2" style="shape=partialRectangle;connectable=0;fillColor=none;top=0;left=0;bottom=0;right=0;align=left;spacingLeft=6;overflow=hidden;" parent="_vR3nj1laZdZThRFA7n--1" vertex="1">
                    <mxGeometry width="30" height="30" as="geometry">
                        <mxRectangle width="30" height="30" as="alternateBounds"/>
                    </mxGeometry>
                </mxCell>
                <mxCell id="_vR3nj1laZdZThRFA7n--3" value="name" style="shape=partialRectangle;connectable=0;fillColor=none;top=0;left=0;bottom=0;right=0;align=left;spacingLeft=6;overflow=hidden;" parent="_vR3nj1laZdZThRFA7n--1" vertex="1">
                    <mxGeometry x="30" width="140" height="30" as="geometry">
                        <mxRectangle width="140" height="30" as="alternateBounds"/>
                    </mxGeometry>
                </mxCell>
                <mxCell id="_vR3nj1laZdZThRFA7n--4" value="string" style="shape=partialRectangle;connectable=0;fillColor=none;top=0;left=0;bottom=0;right=0;align=left;spacingLeft=6;overflow=hidden;" parent="_vR3nj1laZdZThRFA7n--1" vertex="1">
                    <mxGeometry x="170" width="60.00000000000023" height="30" as="geometry">
                        <mxRectangle width="60.00000000000023" height="30" as="alternateBounds"/>
                    </mxGeometry>
                </mxCell>
                <mxCell id="_vR3nj1laZdZThRFA7n--5" value="null: false" style="shape=partialRectangle;connectable=0;fillColor=none;top=0;left=0;bottom=0;right=0;align=left;spacingLeft=6;overflow=hidden;" parent="_vR3nj1laZdZThRFA7n--1" vertex="1">
                    <mxGeometry x="230.00000000000023" width="149.99999999999977" height="30" as="geometry">
                        <mxRectangle width="149.99999999999977" height="30" as="alternateBounds"/>
                    </mxGeometry>
                </mxCell>
                <mxCell id="9zkHAo0U01--tT_nsvhs-42" style="shape=partialRectangle;collapsible=0;dropTarget=0;pointerEvents=0;fillColor=none;top=0;left=0;bottom=0;right=0;points=[[0,0.5],[1,0.5]];portConstraint=eastwest;" parent="9zkHAo0U01--tT_nsvhs-4" vertex="1">
                    <mxGeometry y="120" width="380" height="30" as="geometry"/>
                </mxCell>
                <mxCell id="KC7AhWleOj4YjxLJDr-f-4" style="shape=partialRectangle;connectable=0;fillColor=none;top=0;left=0;bottom=0;right=0;align=left;spacingLeft=6;overflow=hidden;" parent="9zkHAo0U01--tT_nsvhs-42" vertex="1">
                    <mxGeometry width="30" height="30" as="geometry">
                        <mxRectangle width="30" height="30" as="alternateBounds"/>
                    </mxGeometry>
                </mxCell>
                <mxCell id="9zkHAo0U01--tT_nsvhs-43" value="email" style="shape=partialRectangle;connectable=0;fillColor=none;top=0;left=0;bottom=0;right=0;align=left;spacingLeft=6;overflow=hidden;" parent="9zkHAo0U01--tT_nsvhs-42" vertex="1">
                    <mxGeometry x="30" width="140" height="30" as="geometry">
                        <mxRectangle width="140" height="30" as="alternateBounds"/>
                    </mxGeometry>
                </mxCell>
                <mxCell id="9zkHAo0U01--tT_nsvhs-44" value="string" style="shape=partialRectangle;connectable=0;fillColor=none;top=0;left=0;bottom=0;right=0;align=left;spacingLeft=6;overflow=hidden;" parent="9zkHAo0U01--tT_nsvhs-42" vertex="1">
                    <mxGeometry x="170" width="60.00000000000023" height="30" as="geometry">
                        <mxRectangle width="60.00000000000023" height="30" as="alternateBounds"/>
                    </mxGeometry>
                </mxCell>
                <mxCell id="9zkHAo0U01--tT_nsvhs-45" value="null: false, unique: true" style="shape=partialRectangle;connectable=0;fillColor=none;top=0;left=0;bottom=0;right=0;align=left;spacingLeft=6;overflow=hidden;" parent="9zkHAo0U01--tT_nsvhs-42" vertex="1">
                    <mxGeometry x="230.00000000000023" width="149.99999999999977" height="30" as="geometry">
                        <mxRectangle width="149.99999999999977" height="30" as="alternateBounds"/>
                    </mxGeometry>
                </mxCell>
                <mxCell id="zjjQds_pK1CLp4a7ONkw-80" style="shape=partialRectangle;collapsible=0;dropTarget=0;pointerEvents=0;fillColor=none;top=0;left=0;bottom=0;right=0;points=[[0,0.5],[1,0.5]];portConstraint=eastwest;" parent="9zkHAo0U01--tT_nsvhs-4" vertex="1">
                    <mxGeometry y="150" width="380" height="30" as="geometry"/>
                </mxCell>
                <mxCell id="zjjQds_pK1CLp4a7ONkw-81" style="shape=partialRectangle;connectable=0;fillColor=none;top=0;left=0;bottom=0;right=0;align=left;spacingLeft=6;overflow=hidden;" parent="zjjQds_pK1CLp4a7ONkw-80" vertex="1">
                    <mxGeometry width="30" height="30" as="geometry">
                        <mxRectangle width="30" height="30" as="alternateBounds"/>
                    </mxGeometry>
                </mxCell>
                <mxCell id="zjjQds_pK1CLp4a7ONkw-82" value="password" style="shape=partialRectangle;connectable=0;fillColor=none;top=0;left=0;bottom=0;right=0;align=left;spacingLeft=6;overflow=hidden;" parent="zjjQds_pK1CLp4a7ONkw-80" vertex="1">
                    <mxGeometry x="30" width="140" height="30" as="geometry">
                        <mxRectangle width="140" height="30" as="alternateBounds"/>
                    </mxGeometry>
                </mxCell>
                <mxCell id="zjjQds_pK1CLp4a7ONkw-83" value="string" style="shape=partialRectangle;connectable=0;fillColor=none;top=0;left=0;bottom=0;right=0;align=left;spacingLeft=6;overflow=hidden;" parent="zjjQds_pK1CLp4a7ONkw-80" vertex="1">
                    <mxGeometry x="170" width="60.00000000000023" height="30" as="geometry">
                        <mxRectangle width="60.00000000000023" height="30" as="alternateBounds"/>
                    </mxGeometry>
                </mxCell>
                <mxCell id="zjjQds_pK1CLp4a7ONkw-84" value="null: false" style="shape=partialRectangle;connectable=0;fillColor=none;top=0;left=0;bottom=0;right=0;align=left;spacingLeft=6;overflow=hidden;" parent="zjjQds_pK1CLp4a7ONkw-80" vertex="1">
                    <mxGeometry x="230.00000000000023" width="149.99999999999977" height="30" as="geometry">
                        <mxRectangle width="149.99999999999977" height="30" as="alternateBounds"/>
                    </mxGeometry>
                </mxCell>
                <mxCell id="9zkHAo0U01--tT_nsvhs-207" style="shape=partialRectangle;collapsible=0;dropTarget=0;pointerEvents=0;fillColor=none;top=0;left=0;bottom=0;right=0;points=[[0,0.5],[1,0.5]];portConstraint=eastwest;" parent="9zkHAo0U01--tT_nsvhs-4" vertex="1">
                    <mxGeometry y="180" width="380" height="30" as="geometry"/>
                </mxCell>
                <mxCell id="KC7AhWleOj4YjxLJDr-f-7" style="shape=partialRectangle;connectable=0;fillColor=none;top=0;left=0;bottom=0;right=0;align=left;spacingLeft=6;overflow=hidden;" parent="9zkHAo0U01--tT_nsvhs-207" vertex="1">
                    <mxGeometry width="30" height="30" as="geometry">
                        <mxRectangle width="30" height="30" as="alternateBounds"/>
                    </mxGeometry>
                </mxCell>
                <mxCell id="9zkHAo0U01--tT_nsvhs-208" value="slack_code" style="shape=partialRectangle;connectable=0;fillColor=none;top=0;left=0;bottom=0;right=0;align=left;spacingLeft=6;overflow=hidden;" parent="9zkHAo0U01--tT_nsvhs-207" vertex="1">
                    <mxGeometry x="30" width="140" height="30" as="geometry">
                        <mxRectangle width="140" height="30" as="alternateBounds"/>
                    </mxGeometry>
                </mxCell>
                <mxCell id="9zkHAo0U01--tT_nsvhs-209" value="string" style="shape=partialRectangle;connectable=0;fillColor=none;top=0;left=0;bottom=0;right=0;align=left;spacingLeft=6;overflow=hidden;" parent="9zkHAo0U01--tT_nsvhs-207" vertex="1">
                    <mxGeometry x="170" width="60.00000000000023" height="30" as="geometry">
                        <mxRectangle width="60.00000000000023" height="30" as="alternateBounds"/>
                    </mxGeometry>
                </mxCell>
                <mxCell id="9zkHAo0U01--tT_nsvhs-210" value="" style="shape=partialRectangle;connectable=0;fillColor=none;top=0;left=0;bottom=0;right=0;align=left;spacingLeft=6;overflow=hidden;" parent="9zkHAo0U01--tT_nsvhs-207" vertex="1">
                    <mxGeometry x="230.00000000000023" width="149.99999999999977" height="30" as="geometry">
                        <mxRectangle width="149.99999999999977" height="30" as="alternateBounds"/>
                    </mxGeometry>
                </mxCell>
                <mxCell id="iSFHr6bcERjbWos21N-J-1" style="shape=partialRectangle;collapsible=0;dropTarget=0;pointerEvents=0;fillColor=none;top=0;left=0;bottom=0;right=0;points=[[0,0.5],[1,0.5]];portConstraint=eastwest;" parent="9zkHAo0U01--tT_nsvhs-4" vertex="1">
                    <mxGeometry y="210" width="380" height="30" as="geometry"/>
                </mxCell>
                <mxCell id="KC7AhWleOj4YjxLJDr-f-8" style="shape=partialRectangle;connectable=0;fillColor=none;top=0;left=0;bottom=0;right=0;align=left;spacingLeft=6;overflow=hidden;" parent="iSFHr6bcERjbWos21N-J-1" vertex="1">
                    <mxGeometry width="30" height="30" as="geometry">
                        <mxRectangle width="30" height="30" as="alternateBounds"/>
                    </mxGeometry>
                </mxCell>
                <mxCell id="iSFHr6bcERjbWos21N-J-2" value="admin" style="shape=partialRectangle;connectable=0;fillColor=none;top=0;left=0;bottom=0;right=0;align=left;spacingLeft=6;overflow=hidden;" parent="iSFHr6bcERjbWos21N-J-1" vertex="1">
                    <mxGeometry x="30" width="140" height="30" as="geometry">
                        <mxRectangle width="140" height="30" as="alternateBounds"/>
                    </mxGeometry>
                </mxCell>
                <mxCell id="iSFHr6bcERjbWos21N-J-3" value="boolean" style="shape=partialRectangle;connectable=0;fillColor=none;top=0;left=0;bottom=0;right=0;align=left;spacingLeft=6;overflow=hidden;" parent="iSFHr6bcERjbWos21N-J-1" vertex="1">
                    <mxGeometry x="170" width="60.00000000000023" height="30" as="geometry">
                        <mxRectangle width="60.00000000000023" height="30" as="alternateBounds"/>
                    </mxGeometry>
                </mxCell>
                <mxCell id="iSFHr6bcERjbWos21N-J-4" value="default: 0" style="shape=partialRectangle;connectable=0;fillColor=none;top=0;left=0;bottom=0;right=0;align=left;spacingLeft=6;overflow=hidden;" parent="iSFHr6bcERjbWos21N-J-1" vertex="1">
                    <mxGeometry x="230.00000000000023" width="149.99999999999977" height="30" as="geometry">
                        <mxRectangle width="149.99999999999977" height="30" as="alternateBounds"/>
                    </mxGeometry>
                </mxCell>
                <mxCell id="9zkHAo0U01--tT_nsvhs-114" value="Reservation&lt;span style=&quot;background-color: initial;&quot;&gt;s&lt;/span&gt;" style="shape=table;startSize=30;container=1;collapsible=1;childLayout=tableLayout;fixedRows=1;rowLines=0;fontStyle=1;align=center;resizeLast=1;html=1;direction=east;" parent="1" vertex="1">
                    <mxGeometry x="650" y="40" width="370" height="270" as="geometry">
                        <mxRectangle x="380" y="440" width="60" height="30" as="alternateBounds"/>
                    </mxGeometry>
                </mxCell>
                <mxCell id="9zkHAo0U01--tT_nsvhs-115" value="" style="shape=partialRectangle;collapsible=0;dropTarget=0;pointerEvents=0;fillColor=none;top=0;left=0;bottom=1;right=0;points=[[0,0.5],[1,0.5]];portConstraint=eastwest;" parent="9zkHAo0U01--tT_nsvhs-114" vertex="1">
                    <mxGeometry y="30" width="370" height="30" as="geometry"/>
                </mxCell>
                <mxCell id="KC7AhWleOj4YjxLJDr-f-12" style="shape=partialRectangle;connectable=0;fillColor=none;top=0;left=0;bottom=0;right=0;align=left;spacingLeft=6;fontStyle=1;overflow=hidden;" parent="9zkHAo0U01--tT_nsvhs-115" vertex="1">
                    <mxGeometry width="30" height="30" as="geometry">
                        <mxRectangle width="30" height="30" as="alternateBounds"/>
                    </mxGeometry>
                </mxCell>
                <mxCell id="9zkHAo0U01--tT_nsvhs-116" value="colmun" style="shape=partialRectangle;connectable=0;fillColor=none;top=0;left=0;bottom=0;right=0;align=left;spacingLeft=6;fontStyle=1;overflow=hidden;" parent="9zkHAo0U01--tT_nsvhs-115" vertex="1">
                    <mxGeometry x="30" width="130" height="30" as="geometry">
                        <mxRectangle width="130" height="30" as="alternateBounds"/>
                    </mxGeometry>
                </mxCell>
                <mxCell id="9zkHAo0U01--tT_nsvhs-117" value="type" style="shape=partialRectangle;connectable=0;fillColor=none;top=0;left=0;bottom=0;right=0;align=left;spacingLeft=6;fontStyle=1;overflow=hidden;" parent="9zkHAo0U01--tT_nsvhs-115" vertex="1">
                    <mxGeometry x="160" width="70" height="30" as="geometry">
                        <mxRectangle width="70" height="30" as="alternateBounds"/>
                    </mxGeometry>
                </mxCell>
                <mxCell id="9zkHAo0U01--tT_nsvhs-118" value="Options" style="shape=partialRectangle;connectable=0;fillColor=none;top=0;left=0;bottom=0;right=0;align=left;spacingLeft=6;fontStyle=1;overflow=hidden;" parent="9zkHAo0U01--tT_nsvhs-115" vertex="1">
                    <mxGeometry x="230" width="140" height="30" as="geometry">
                        <mxRectangle width="140" height="30" as="alternateBounds"/>
                    </mxGeometry>
                </mxCell>
                <mxCell id="9zkHAo0U01--tT_nsvhs-119" value="" style="shape=partialRectangle;collapsible=0;dropTarget=0;pointerEvents=0;fillColor=none;top=0;left=0;bottom=0;right=0;points=[[0,0.5],[1,0.5]];portConstraint=eastwest;" parent="9zkHAo0U01--tT_nsvhs-114" vertex="1">
                    <mxGeometry y="60" width="370" height="30" as="geometry"/>
                </mxCell>
                <mxCell id="KC7AhWleOj4YjxLJDr-f-13" value="PK" style="shape=partialRectangle;connectable=0;fillColor=none;top=0;left=0;bottom=0;right=0;align=left;spacingLeft=6;overflow=hidden;" parent="9zkHAo0U01--tT_nsvhs-119" vertex="1">
                    <mxGeometry width="30" height="30" as="geometry">
                        <mxRectangle width="30" height="30" as="alternateBounds"/>
                    </mxGeometry>
                </mxCell>
                <mxCell id="9zkHAo0U01--tT_nsvhs-120" value="id" style="shape=partialRectangle;connectable=0;fillColor=none;top=0;left=0;bottom=0;right=0;align=left;spacingLeft=6;overflow=hidden;" parent="9zkHAo0U01--tT_nsvhs-119" vertex="1">
                    <mxGeometry x="30" width="130" height="30" as="geometry">
                        <mxRectangle width="130" height="30" as="alternateBounds"/>
                    </mxGeometry>
                </mxCell>
                <mxCell id="9zkHAo0U01--tT_nsvhs-121" value="integer" style="shape=partialRectangle;connectable=0;fillColor=none;top=0;left=0;bottom=0;right=0;align=left;spacingLeft=6;overflow=hidden;" parent="9zkHAo0U01--tT_nsvhs-119" vertex="1">
                    <mxGeometry x="160" width="70" height="30" as="geometry">
                        <mxRectangle width="70" height="30" as="alternateBounds"/>
                    </mxGeometry>
                </mxCell>
                <mxCell id="9zkHAo0U01--tT_nsvhs-122" value="null: false, unique: true" style="shape=partialRectangle;connectable=0;fillColor=none;top=0;left=0;bottom=0;right=0;align=left;spacingLeft=6;overflow=hidden;" parent="9zkHAo0U01--tT_nsvhs-119" vertex="1">
                    <mxGeometry x="230" width="140" height="30" as="geometry">
                        <mxRectangle width="140" height="30" as="alternateBounds"/>
                    </mxGeometry>
                </mxCell>
                <mxCell id="9zkHAo0U01--tT_nsvhs-123" value="" style="shape=partialRectangle;collapsible=0;dropTarget=0;pointerEvents=0;fillColor=none;top=0;left=0;bottom=0;right=0;points=[[0,0.5],[1,0.5]];portConstraint=eastwest;" parent="9zkHAo0U01--tT_nsvhs-114" vertex="1">
                    <mxGeometry y="90" width="370" height="30" as="geometry"/>
                </mxCell>
                <mxCell id="KC7AhWleOj4YjxLJDr-f-14" value="FK" style="shape=partialRectangle;connectable=0;fillColor=none;top=0;left=0;bottom=0;right=0;align=left;spacingLeft=6;overflow=hidden;" parent="9zkHAo0U01--tT_nsvhs-123" vertex="1">
                    <mxGeometry width="30" height="30" as="geometry">
                        <mxRectangle width="30" height="30" as="alternateBounds"/>
                    </mxGeometry>
                </mxCell>
                <mxCell id="9zkHAo0U01--tT_nsvhs-124" value="user_id" style="shape=partialRectangle;connectable=0;fillColor=none;top=0;left=0;bottom=0;right=0;align=left;spacingLeft=6;overflow=hidden;" parent="9zkHAo0U01--tT_nsvhs-123" vertex="1">
                    <mxGeometry x="30" width="130" height="30" as="geometry">
                        <mxRectangle width="130" height="30" as="alternateBounds"/>
                    </mxGeometry>
                </mxCell>
                <mxCell id="9zkHAo0U01--tT_nsvhs-125" value="integer" style="shape=partialRectangle;connectable=0;fillColor=none;top=0;left=0;bottom=0;right=0;align=left;spacingLeft=6;overflow=hidden;" parent="9zkHAo0U01--tT_nsvhs-123" vertex="1">
                    <mxGeometry x="160" width="70" height="30" as="geometry">
                        <mxRectangle width="70" height="30" as="alternateBounds"/>
                    </mxGeometry>
                </mxCell>
                <mxCell id="9zkHAo0U01--tT_nsvhs-126" value="null: false" style="shape=partialRectangle;connectable=0;fillColor=none;top=0;left=0;bottom=0;right=0;align=left;spacingLeft=6;overflow=hidden;" parent="9zkHAo0U01--tT_nsvhs-123" vertex="1">
                    <mxGeometry x="230" width="140" height="30" as="geometry">
                        <mxRectangle width="140" height="30" as="alternateBounds"/>
                    </mxGeometry>
                </mxCell>
                <mxCell id="9zkHAo0U01--tT_nsvhs-127" style="shape=partialRectangle;collapsible=0;dropTarget=0;pointerEvents=0;fillColor=none;top=0;left=0;bottom=0;right=0;points=[[0,0.5],[1,0.5]];portConstraint=eastwest;" parent="9zkHAo0U01--tT_nsvhs-114" vertex="1">
                    <mxGeometry y="120" width="370" height="30" as="geometry"/>
                </mxCell>
                <mxCell id="KC7AhWleOj4YjxLJDr-f-15" value="FK" style="shape=partialRectangle;connectable=0;fillColor=none;top=0;left=0;bottom=0;right=0;align=left;spacingLeft=6;overflow=hidden;" parent="9zkHAo0U01--tT_nsvhs-127" vertex="1">
                    <mxGeometry width="30" height="30" as="geometry">
                        <mxRectangle width="30" height="30" as="alternateBounds"/>
                    </mxGeometry>
                </mxCell>
                <mxCell id="9zkHAo0U01--tT_nsvhs-128" value="teacher_id" style="shape=partialRectangle;connectable=0;fillColor=none;top=0;left=0;bottom=0;right=0;align=left;spacingLeft=6;overflow=hidden;" parent="9zkHAo0U01--tT_nsvhs-127" vertex="1">
                    <mxGeometry x="30" width="130" height="30" as="geometry">
                        <mxRectangle width="130" height="30" as="alternateBounds"/>
                    </mxGeometry>
                </mxCell>
                <mxCell id="9zkHAo0U01--tT_nsvhs-129" value="integer" style="shape=partialRectangle;connectable=0;fillColor=none;top=0;left=0;bottom=0;right=0;align=left;spacingLeft=6;overflow=hidden;" parent="9zkHAo0U01--tT_nsvhs-127" vertex="1">
                    <mxGeometry x="160" width="70" height="30" as="geometry">
                        <mxRectangle width="70" height="30" as="alternateBounds"/>
                    </mxGeometry>
                </mxCell>
                <mxCell id="9zkHAo0U01--tT_nsvhs-130" value="" style="shape=partialRectangle;connectable=0;fillColor=none;top=0;left=0;bottom=0;right=0;align=left;spacingLeft=6;overflow=hidden;" parent="9zkHAo0U01--tT_nsvhs-127" vertex="1">
                    <mxGeometry x="230" width="140" height="30" as="geometry">
                        <mxRectangle width="140" height="30" as="alternateBounds"/>
                    </mxGeometry>
                </mxCell>
                <mxCell id="_vR3nj1laZdZThRFA7n--28" style="shape=partialRectangle;collapsible=0;dropTarget=0;pointerEvents=0;fillColor=none;top=0;left=0;bottom=0;right=0;points=[[0,0.5],[1,0.5]];portConstraint=eastwest;" parent="9zkHAo0U01--tT_nsvhs-114" vertex="1">
                    <mxGeometry y="150" width="370" height="30" as="geometry"/>
                </mxCell>
                <mxCell id="_vR3nj1laZdZThRFA7n--29" value="" style="shape=partialRectangle;connectable=0;fillColor=none;top=0;left=0;bottom=0;right=0;align=left;spacingLeft=6;overflow=hidden;" parent="_vR3nj1laZdZThRFA7n--28" vertex="1">
                    <mxGeometry width="30" height="30" as="geometry">
                        <mxRectangle width="30" height="30" as="alternateBounds"/>
                    </mxGeometry>
                </mxCell>
                <mxCell id="_vR3nj1laZdZThRFA7n--30" value="time_number" style="shape=partialRectangle;connectable=0;fillColor=none;top=0;left=0;bottom=0;right=0;align=left;spacingLeft=6;overflow=hidden;" parent="_vR3nj1laZdZThRFA7n--28" vertex="1">
                    <mxGeometry x="30" width="130" height="30" as="geometry">
                        <mxRectangle width="130" height="30" as="alternateBounds"/>
                    </mxGeometry>
                </mxCell>
                <mxCell id="_vR3nj1laZdZThRFA7n--31" value="integer" style="shape=partialRectangle;connectable=0;fillColor=none;top=0;left=0;bottom=0;right=0;align=left;spacingLeft=6;overflow=hidden;" parent="_vR3nj1laZdZThRFA7n--28" vertex="1">
                    <mxGeometry x="160" width="70" height="30" as="geometry">
                        <mxRectangle width="70" height="30" as="alternateBounds"/>
                    </mxGeometry>
                </mxCell>
                <mxCell id="_vR3nj1laZdZThRFA7n--32" value="null: false" style="shape=partialRectangle;connectable=0;fillColor=none;top=0;left=0;bottom=0;right=0;align=left;spacingLeft=6;overflow=hidden;" parent="_vR3nj1laZdZThRFA7n--28" vertex="1">
                    <mxGeometry x="230" width="140" height="30" as="geometry">
                        <mxRectangle width="140" height="30" as="alternateBounds"/>
                    </mxGeometry>
                </mxCell>
                <mxCell id="_vR3nj1laZdZThRFA7n--33" style="shape=partialRectangle;collapsible=0;dropTarget=0;pointerEvents=0;fillColor=none;top=0;left=0;bottom=0;right=0;points=[[0,0.5],[1,0.5]];portConstraint=eastwest;" parent="9zkHAo0U01--tT_nsvhs-114" vertex="1">
                    <mxGeometry y="180" width="370" height="30" as="geometry"/>
                </mxCell>
                <mxCell id="_vR3nj1laZdZThRFA7n--34" value="" style="shape=partialRectangle;connectable=0;fillColor=none;top=0;left=0;bottom=0;right=0;align=left;spacingLeft=6;overflow=hidden;" parent="_vR3nj1laZdZThRFA7n--33" vertex="1">
                    <mxGeometry width="30" height="30" as="geometry">
                        <mxRectangle width="30" height="30" as="alternateBounds"/>
                    </mxGeometry>
                </mxCell>
                <mxCell id="_vR3nj1laZdZThRFA7n--35" value="day" style="shape=partialRectangle;connectable=0;fillColor=none;top=0;left=0;bottom=0;right=0;align=left;spacingLeft=6;overflow=hidden;" parent="_vR3nj1laZdZThRFA7n--33" vertex="1">
                    <mxGeometry x="30" width="130" height="30" as="geometry">
                        <mxRectangle width="130" height="30" as="alternateBounds"/>
                    </mxGeometry>
                </mxCell>
                <mxCell id="_vR3nj1laZdZThRFA7n--36" value="date" style="shape=partialRectangle;connectable=0;fillColor=none;top=0;left=0;bottom=0;right=0;align=left;spacingLeft=6;overflow=hidden;" parent="_vR3nj1laZdZThRFA7n--33" vertex="1">
                    <mxGeometry x="160" width="70" height="30" as="geometry">
                        <mxRectangle width="70" height="30" as="alternateBounds"/>
                    </mxGeometry>
                </mxCell>
                <mxCell id="_vR3nj1laZdZThRFA7n--37" value="null: false" style="shape=partialRectangle;connectable=0;fillColor=none;top=0;left=0;bottom=0;right=0;align=left;spacingLeft=6;overflow=hidden;" parent="_vR3nj1laZdZThRFA7n--33" vertex="1">
                    <mxGeometry x="230" width="140" height="30" as="geometry">
                        <mxRectangle width="140" height="30" as="alternateBounds"/>
                    </mxGeometry>
                </mxCell>
                <mxCell id="_vR3nj1laZdZThRFA7n--69" style="shape=partialRectangle;collapsible=0;dropTarget=0;pointerEvents=0;fillColor=none;top=0;left=0;bottom=0;right=0;points=[[0,0.5],[1,0.5]];portConstraint=eastwest;" parent="9zkHAo0U01--tT_nsvhs-114" vertex="1">
                    <mxGeometry y="210" width="370" height="30" as="geometry"/>
                </mxCell>
                <mxCell id="_vR3nj1laZdZThRFA7n--70" value="" style="shape=partialRectangle;connectable=0;fillColor=none;top=0;left=0;bottom=0;right=0;align=left;spacingLeft=6;overflow=hidden;" parent="_vR3nj1laZdZThRFA7n--69" vertex="1">
                    <mxGeometry width="30" height="30" as="geometry">
                        <mxRectangle width="30" height="30" as="alternateBounds"/>
                    </mxGeometry>
                </mxCell>
                <mxCell id="_vR3nj1laZdZThRFA7n--71" value="created" style="shape=partialRectangle;connectable=0;fillColor=none;top=0;left=0;bottom=0;right=0;align=left;spacingLeft=6;overflow=hidden;" parent="_vR3nj1laZdZThRFA7n--69" vertex="1">
                    <mxGeometry x="30" width="130" height="30" as="geometry">
                        <mxRectangle width="130" height="30" as="alternateBounds"/>
                    </mxGeometry>
                </mxCell>
                <mxCell id="_vR3nj1laZdZThRFA7n--72" value="datetime" style="shape=partialRectangle;connectable=0;fillColor=none;top=0;left=0;bottom=0;right=0;align=left;spacingLeft=6;overflow=hidden;" parent="_vR3nj1laZdZThRFA7n--69" vertex="1">
                    <mxGeometry x="160" width="70" height="30" as="geometry">
                        <mxRectangle width="70" height="30" as="alternateBounds"/>
                    </mxGeometry>
                </mxCell>
                <mxCell id="_vR3nj1laZdZThRFA7n--73" value="default: now()" style="shape=partialRectangle;connectable=0;fillColor=none;top=0;left=0;bottom=0;right=0;align=left;spacingLeft=6;overflow=hidden;" parent="_vR3nj1laZdZThRFA7n--69" vertex="1">
                    <mxGeometry x="230" width="140" height="30" as="geometry">
                        <mxRectangle width="140" height="30" as="alternateBounds"/>
                    </mxGeometry>
                </mxCell>
                <mxCell id="_vR3nj1laZdZThRFA7n--74" style="shape=partialRectangle;collapsible=0;dropTarget=0;pointerEvents=0;fillColor=none;top=0;left=0;bottom=0;right=0;points=[[0,0.5],[1,0.5]];portConstraint=eastwest;" parent="9zkHAo0U01--tT_nsvhs-114" vertex="1">
                    <mxGeometry y="240" width="370" height="30" as="geometry"/>
                </mxCell>
                <mxCell id="_vR3nj1laZdZThRFA7n--75" value="" style="shape=partialRectangle;connectable=0;fillColor=none;top=0;left=0;bottom=0;right=0;align=left;spacingLeft=6;overflow=hidden;" parent="_vR3nj1laZdZThRFA7n--74" vertex="1">
                    <mxGeometry width="30" height="30" as="geometry">
                        <mxRectangle width="30" height="30" as="alternateBounds"/>
                    </mxGeometry>
                </mxCell>
                <mxCell id="_vR3nj1laZdZThRFA7n--76" value="modfied" style="shape=partialRectangle;connectable=0;fillColor=none;top=0;left=0;bottom=0;right=0;align=left;spacingLeft=6;overflow=hidden;" parent="_vR3nj1laZdZThRFA7n--74" vertex="1">
                    <mxGeometry x="30" width="130" height="30" as="geometry">
                        <mxRectangle width="130" height="30" as="alternateBounds"/>
                    </mxGeometry>
                </mxCell>
                <mxCell id="_vR3nj1laZdZThRFA7n--77" value="timestamp" style="shape=partialRectangle;connectable=0;fillColor=none;top=0;left=0;bottom=0;right=0;align=left;spacingLeft=6;overflow=hidden;" parent="_vR3nj1laZdZThRFA7n--74" vertex="1">
                    <mxGeometry x="160" width="70" height="30" as="geometry">
                        <mxRectangle width="70" height="30" as="alternateBounds"/>
                    </mxGeometry>
                </mxCell>
                <mxCell id="_vR3nj1laZdZThRFA7n--78" value="" style="shape=partialRectangle;connectable=0;fillColor=none;top=0;left=0;bottom=0;right=0;align=left;spacingLeft=6;overflow=hidden;" parent="_vR3nj1laZdZThRFA7n--74" vertex="1">
                    <mxGeometry x="230" width="140" height="30" as="geometry">
                        <mxRectangle width="140" height="30" as="alternateBounds"/>
                    </mxGeometry>
                </mxCell>
                <mxCell id="mSa8Em2BACnRnfBzz1B8-144" value="" style="edgeStyle=orthogonalEdgeStyle;fontSize=12;html=1;endArrow=ERoneToMany;exitX=0;exitY=0.5;exitDx=0;exitDy=0;entryX=1;entryY=0.5;entryDx=0;entryDy=0;" parent="1" source="9zkHAo0U01--tT_nsvhs-123" target="9zkHAo0U01--tT_nsvhs-11" edge="1">
                    <mxGeometry width="100" height="100" relative="1" as="geometry">
                        <mxPoint x="409.55999999999995" y="360.48" as="sourcePoint"/>
                        <mxPoint x="770" y="710" as="targetPoint"/>
                    </mxGeometry>
                </mxCell>
                <mxCell id="_vR3nj1laZdZThRFA7n--6" value="" style="edgeStyle=orthogonalEdgeStyle;fontSize=12;html=1;endArrow=ERoneToMany;exitX=0;exitY=0.5;exitDx=0;exitDy=0;entryX=1;entryY=0.5;entryDx=0;entryDy=0;" parent="1" source="9zkHAo0U01--tT_nsvhs-127" target="9zkHAo0U01--tT_nsvhs-11" edge="1">
                    <mxGeometry width="100" height="100" relative="1" as="geometry">
                        <mxPoint x="660" y="175" as="sourcePoint"/>
                        <mxPoint x="510" y="115" as="targetPoint"/>
                    </mxGeometry>
                </mxCell>
            </root>
        </mxGraphModel>
    </diagram>
</mxfile>
